<?xml version="1.0" encoding="iso-8859-1"?>
<!-- Uploaded to: SVG Repo, www.svgrepo.com, Generator: SVG Repo Mixer Tools -->
<svg height="800px" width="800px" version="1.1" id="Layer_1" xmlns="http://www.w3.org/2000/svg" xmlns:xlink="http://www.w3.org/1999/xlink" 
	 viewBox="0 0 136.31 136.31" xml:space="preserve">
<g>
	<path style="fill:#C6E070;" d="M33.702,83.641c0,0-37.207,12.964-33.433,49.42h33.433c0,0-9.167-38.381,6.471-44.91
		C40.172,88.151,44.487,81.886,33.702,83.641z"/>
	<path style="fill:#FCCAAE;" d="M121.093,92.891c2.045-6.879,16.916-26.398,15.057-48.706c-1.86-22.307-14.315-39.967-42.756-40.897
		c-28.442-0.93-43.872,14.686-47.219,27.699C42.83,44,42.272,41.955,44.13,48.275c1.859,6.321-9.736,16.177-10.41,23.052
		c-0.346,3.532,6.66,4.283,6.66,4.283s0.034,1.795-0.85,6.068c0.225-0.015,1.376-0.505,3.782-0.384
		c4.425,0.223,5.739,1.037,6.005,2.749c0.273,1.762-1.334,2.87-3.071,3.771c-1.262,0.654-5.222,1.356-5.222,1.356
		s1.428,14.658,4.663,15.875c5.005,1.883,8.455,1.314,10.721,0.917c1.543-0.271,2.761-0.387,4.909-0.087
		c2.249,0.502,5.62,3.67,5.62,3.67c-0.096-0.099-0.711-0.88,0,0c2.625,3.25,1.625,5.375,3.219,21.456h52.608
		C122.765,131.001,119.046,99.77,121.093,92.891z"/>
</g>
</svg>